<svg id="visual" viewBox="0 0 960 540" width="960" height="540" xmlns="http://www.w3.org/2000/svg" xmlns:xlink="http://www.w3.org/1999/xlink" version="1.1"><rect x="0" y="0" width="960" height="540" fill="#F7770F"></rect><path d="M0 337L22.8 318.3C45.7 299.7 91.3 262.3 137 265.3C182.7 268.3 228.3 311.7 274 328.7C319.7 345.7 365.3 336.3 411.2 318.7C457 301 503 275 548.8 279.3C594.7 283.7 640.3 318.3 686 314.3C731.7 310.3 777.3 267.7 823 242.2C868.7 216.7 914.3 208.3 937.2 204.2L960 200L960 0L937.2 0C914.3 0 868.7 0 823 0C777.3 0 731.7 0 686 0C640.3 0 594.7 0 548.8 0C503 0 457 0 411.2 0C365.3 0 319.7 0 274 0C228.3 0 182.7 0 137 0C91.3 0 45.7 0 22.8 0L0 0Z" fill="#e61f1f"></path><path d="M0 297L22.8 290.5C45.7 284 91.3 271 137 259.2C182.7 247.3 228.3 236.7 274 239.8C319.7 243 365.3 260 411.2 261.2C457 262.3 503 247.7 548.8 250.8C594.7 254 640.3 275 686 285.7C731.7 296.3 777.3 296.7 823 281.8C868.7 267 914.3 237 937.2 222L960 207L960 0L937.2 0C914.3 0 868.7 0 823 0C777.3 0 731.7 0 686 0C640.3 0 594.7 0 548.8 0C503 0 457 0 411.2 0C365.3 0 319.7 0 274 0C228.3 0 182.7 0 137 0C91.3 0 45.7 0 22.8 0L0 0Z" fill="#cf2c24"></path><path d="M0 275L22.8 275.3C45.7 275.7 91.3 276.3 137 271C182.7 265.7 228.3 254.3 274 239C319.7 223.7 365.3 204.3 411.2 182.3C457 160.3 503 135.7 548.8 140.7C594.7 145.7 640.3 180.3 686 206C731.7 231.7 777.3 248.3 823 250.3C868.7 252.3 914.3 239.7 937.2 233.3L960 227L960 0L937.2 0C914.3 0 868.7 0 823 0C777.3 0 731.7 0 686 0C640.3 0 594.7 0 548.8 0C503 0 457 0 411.2 0C365.3 0 319.7 0 274 0C228.3 0 182.7 0 137 0C91.3 0 45.7 0 22.8 0L0 0Z" fill="#b93428"></path><path d="M0 183L22.8 176.3C45.7 169.7 91.3 156.3 137 142.8C182.7 129.3 228.3 115.7 274 131C319.7 146.3 365.3 190.7 411.2 190.5C457 190.3 503 145.7 548.8 139.2C594.7 132.7 640.3 164.3 686 168C731.7 171.7 777.3 147.3 823 141.8C868.7 136.3 914.3 149.7 937.2 156.3L960 163L960 0L937.2 0C914.3 0 868.7 0 823 0C777.3 0 731.7 0 686 0C640.3 0 594.7 0 548.8 0C503 0 457 0 411.2 0C365.3 0 319.7 0 274 0C228.3 0 182.7 0 137 0C91.3 0 45.7 0 22.8 0L0 0Z" fill="#a2382c"></path><path d="M0 157L22.8 156.3C45.7 155.7 91.3 154.3 137 147.3C182.7 140.3 228.3 127.7 274 131.8C319.7 136 365.3 157 411.2 167.2C457 177.3 503 176.7 548.8 169.7C594.7 162.7 640.3 149.3 686 137.8C731.7 126.3 777.3 116.7 823 115.3C868.7 114 914.3 121 937.2 124.5L960 128L960 0L937.2 0C914.3 0 868.7 0 823 0C777.3 0 731.7 0 686 0C640.3 0 594.7 0 548.8 0C503 0 457 0 411.2 0C365.3 0 319.7 0 274 0C228.3 0 182.7 0 137 0C91.3 0 45.7 0 22.8 0L0 0Z" fill="#8b3b2f"></path><path d="M0 73L22.8 82.5C45.7 92 91.3 111 137 108.3C182.7 105.7 228.3 81.3 274 75.2C319.7 69 365.3 81 411.2 79.2C457 77.3 503 61.7 548.8 69C594.7 76.3 640.3 106.7 686 116.7C731.7 126.7 777.3 116.3 823 106C868.7 95.7 914.3 85.3 937.2 80.2L960 75L960 0L937.2 0C914.3 0 868.7 0 823 0C777.3 0 731.7 0 686 0C640.3 0 594.7 0 548.8 0C503 0 457 0 411.2 0C365.3 0 319.7 0 274 0C228.3 0 182.7 0 137 0C91.3 0 45.7 0 22.8 0L0 0Z" fill="#743b32"></path><path d="M0 37L22.8 39.8C45.7 42.7 91.3 48.3 137 54.3C182.7 60.3 228.3 66.7 274 61C319.7 55.3 365.3 37.7 411.2 33C457 28.3 503 36.7 548.8 44.8C594.7 53 640.3 61 686 61.5C731.7 62 777.3 55 823 46.8C868.7 38.7 914.3 29.3 937.2 24.7L960 20L960 0L937.2 0C914.3 0 868.7 0 823 0C777.3 0 731.7 0 686 0C640.3 0 594.7 0 548.8 0C503 0 457 0 411.2 0C365.3 0 319.7 0 274 0C228.3 0 182.7 0 137 0C91.3 0 45.7 0 22.8 0L0 0Z" fill="#5d3b35"></path></svg>